# AST/ASF file generated using VICON BodyLanguage
# -----------------------------------------------
:version 1.10
:name VICON
:units
  mass 1.0
  length 0.45
  angle deg
:documentation
   .ast/.asf automatically generated from VICON data using
   VICON BodyBuilder and BodyLanguage model FoxedUp or BRILLIANT.MOD
:root
   order TX TY TZ RX RY RZ
   axis XYZ
   position 0 0 0  
   orientation 0 0 0 
:bonedata
  begin
     id 1 
     name lhipjoint
     direction 0.682418 -0.694059 0.22932 
     length 2.25561 
     axis 0 0 0  XYZ
  end
  begin
     id 2 
     name lfemur
     direction 0.34202 -0.939693 0  
     length 6.96448  
     axis 0 0 20  XYZ
    dof rx ry rz
    limits (-160.0 20.0)
           (-70.0 70.0)
           (-60.0 70.0)
  end
  begin
     id 3 
     name ltibia
     direction 0.34202 -0.939693 0   
     length 6.88553   
     axis 0 0 20   XYZ
    dof rx
    limits (-10.0 170.0)
  end
  begin
     id 4 
     name lfoot
     direction 0.0723587 -0.198804 0.977364   
     length 1.88518   
     axis -90 7.62852e-016 20   XYZ
    dof rx rz
    limits (-45.0 90.0)
           (-70.0 20.0)
  end
  begin
     id 5 
     name ltoes
     direction 1.53558e-011 -4.21962e-011 1   
     length 0.952124   
     axis -90 7.62852e-016 20   XYZ
    dof rx
    limits (-90.0 20.0)
  end
  begin
     id 6 
     name rhipjoint
     direction -0.657603 -0.71533 0.236348   
     length 2.18854  
     axis 0 0 0  XYZ 
  end
  begin
     id 7 
     name rfemur
     direction -0.34202 -0.939693 0   
     length 6.86686   
     axis 0 0 -20   XYZ
    dof rx ry rz
    limits (-160.0 20.0)
           (-70.0 70.0)
           (-70.0 60.0)
  end
  begin
     id 8 
     name rtibia
     direction -0.34202 -0.939693 0   
     length 6.59503   
     axis 0 0 -20   XYZ
    dof rx
    limits (-10.0 170.0)
 end
 begin
     id 9 
     name rfoot
     direction -0.101977 -0.280179 0.954516   
     length 1.93723  
     axis -90 -7.62852e-016 -20   XYZ
    dof rx rz
    limits (-45.0 90.0)
           (-20.0 70.0)
  end
  begin
     id 10 
     name rtoes
     direction -1.53564e-011 -4.21897e-011 1   
     length 0.970315   
     axis -90 -7.62852e-016 -20   XYZ
    dof rx
    limits (-90.0 20.0)
  end
  begin
     id 11 
     name lowerback
     direction -0.0339559 0.999421 -0.00235966   
     length 1.88543   
     axis 0 0 0   XYZ
    dof rx ry rz
    limits (-20.0 45.0)
           (-30.0 30.0)
           (-30.0 30.0)
  end
  begin
     id 12 
     name upperback
     direction 0.00401003 0.999739 0.0224689   
     length 1.8856   
     axis 0 0 0   XYZ
    dof rx ry rz
    limits (-20.0 45.0)
           (-30.0 30.0)
           (-30.0 30.0)
  end
  begin
     id 13 
     name thorax
     direction 0.0198619 0.999546 0.0226536   
     length 1.88352   
     axis 0 0 0   XYZ
    dof rx ry rz
    limits (-20.0 45.0)
           (-30.0 30.0)
           (-30.0 30.0)
  end
  begin
     id 14 
     name lowerneck
     direction -0.0461848 0.998632 0.0245198   
     length 1.34895   
     axis 0 0 0   XYZ
    dof rx ry rz
    limits (-20.0 45.0)
           (-30.0 30.0)
           (-30.0 30.0)
  end
  begin
     id 15 
     name upperneck
     direction -0.0180627 0.994724 -0.100984   
     length 1.35214   
     axis 0 0 0   XYZ
    dof rx ry rz
    limits (-20.0 45.0)
           (-30.0 30.0)
           (-30.0 30.0)
  end
  begin
     id 16
     name head
     direction -0.00374772 0.999293 -0.037403  
     length 1.3568  
     axis 0 0 0   XYZ
    dof rx ry rz
    limits (-20.0 45.0)
           (-30.0 30.0)
           (-30.0 30.0)
  end
  begin
     id 17 
     name lclavicle
     direction 0.971773 0.191119 0.138311  
     length 2.84954  
     axis 0 0 0   XYZ
    dof ry rz
    limits (-20.0 10.0)
           (0.0 20.0)
  end
  begin
     id 18 
     name lhumerus
     direction 1 -4.4897e-011 -2.43761e-027   
     length 4.40919   
     axis 180 -30 -90   XYZ
    dof rx ry rz
    limits (-60.0 90.0)
           (-90.0 90.0)
           (-90.0 90.0)
  end
  begin
     id 19
     name lradius
     direction 1 -4.4896e-011 -9.1621e-027   
     length 3.03857   
     axis 180 -30 -90   XYZ
    dof rx
    limits (-10.0 170.0)
  end
  begin
     id 20
     name lwrist
     direction 1 -4.4896e-011 -1.41363e-026   
     length 1.51928   
     axis 1.07133e-014 90 90   XYZ
    dof ry
    limits (-180.0 0.0)
 end
  begin
     id 21 
     name lhand
     direction 1 -4.48978e-011 -2.82725e-026   
     length 0.523208   
     axis 1.80403e-014 90 90   XYZ
    dof rx rz
    limits (-90.0 90.0)
           (-45.0 45.0)
  end
  begin
     id 22 
     name lfingers
     direction 1 -4.48977e-011 -5.6545e-026   
     length 0.421824   
     axis 3.60806e-014 90 90   XYZ
    dof rx
    limits (0.0 90.0)
  end
  begin
     id 23
     name lthumb
     direction 0.707107 -6.34962e-011 0.707107   
     length 0.605657   
     axis -90 45 2.85299e-015   XYZ
    dof rx rz
    limits (-45.0 45.0)
           (-45.0 45.0)
  end
  begin
     id 24 
     name rclavicle
     direction -0.957247 0.24311 0.156766   
     length 3.12406  
     axis 0 0 0   XYZ 
    dof ry rz
    limits (-10.0 20.0)
           (-20.0 0.0)
  end
  begin
     id 25 
     name rhumerus
     direction -1 -4.48964e-011 -1.70632e-027  
     length 4.61969   
     axis 180 30 90   XYZ
    dof rx ry rz
    limits (-90.0 60.0)
           (-90.0 90.0)
           (-90.0 90.0)
  end
  begin
     id 26 
     name rradius
     direction -1 -4.48966e-011 -6.60395e-027   
     length 3.09382   
     axis 180 30 90   XYZ
    dof rx
    limits (-10.0 170.0)
  end
  begin
     id 27 
     name rwrist
     direction -1 -4.48963e-011 -1.41363e-026   
     length 1.54691   
     axis 1.07133e-014 -90 -90   XYZ
    dof ry
    limits (-180.0 0.0)
  end
  begin
     id 28
     name rhand
     direction -1 -4.49013e-011 -2.82725e-026   
     length 0.500896   
     axis 1.80403e-014 -90 -90   XYZ
    dof rx rz
    limits (-90.0 90.0)
           (-45.0 45.0)
  end
  begin
     id 29
     name rfingers
     direction -1 -4.48902e-011 -5.6545e-026   
     length 0.403835   
     axis 3.60806e-014 -90 -90   XYZ
    dof rx
    limits (0.0 90.0)
  end
  begin
     id 30
     name rthumb
     direction -0.707107 -6.34953e-011 0.707107   
     length 0.579829   
     axis -90 -45 -2.85299e-015   XYZ
    dof rx rz
    limits (-45.0 45.0)
           (-45.0 45.0)
  end
:hierarchy
  begin
    root lhipjoint rhipjoint lowerback
    lhipjoint lfemur
    lfemur ltibia
    ltibia lfoot
    lfoot ltoes
    rhipjoint rfemur
    rfemur rtibia
    rtibia rfoot
    rfoot rtoes
    lowerback upperback
    upperback thorax
    thorax lowerneck lclavicle rclavicle
    lowerneck upperneck
    upperneck head
    lclavicle lhumerus
    lhumerus lradius
    lradius lwrist
    lwrist lhand lthumb
    lhand lfingers
    rclavicle rhumerus
    rhumerus rradius
    rradius rwrist
    rwrist rhand rthumb
    rhand rfingers
  end

#!OML:ASF E:\madness\Project 1\Capture day 1\Session 1\Female1.ASF
:FULLY-SPECIFIED
:DEGREES
321
root 9.7344 16.2562 2.28618 -546.11 -82.0269 556.477
lowerback -5.35593 0.175637 -1.70809
upperback -4.50297 0.178575 1.915
thorax -1.64838 0.103095 2.9388
lowerneck 4.34162 -0.466552 -0.451515
upperneck 3.2745 -0.674255 -2.32202
head 0.278617 -0.371338 -0.622885
rclavicle 9.99204e-015 -4.37326e-015
rhumerus -47.6924 0.105965 -46.1358
rradius 60.0026
rwrist 20.0975
rhand -20.0542 -44.7815
rfingers 7.12502
rthumb 6.28749 -74.6682
lclavicle 9.99204e-015 -4.37326e-015
lhumerus -45.1584 -10.5966 84.769
lradius 89.2965
lwrist -25.2409
lhand -32.8062 -24.2407
lfingers 7.12502
lthumb -6.02715 5.65355
rfemur -1.55976 1.65111 14.2992
rtibia 38.7757
rfoot -4.87676 -26.5522
rtoes 39.2861
lfemur -24.0174 -10.7779 -11.4546
ltibia 28.4164
lfoot -8.08982 15.4106
ltoes -2.50666
322
root 9.8562 16.2502 2.24948 -544.159 -81.0837 554.409
lowerback -5.50725 0.244205 -1.81627
upperback -4.40001 0.276803 1.8756
thorax -1.46463 0.151829 2.96334
lowerneck 4.2752 -0.564687 -0.440872
upperneck 3.27717 -0.803158 -2.38355
head 0.288564 -0.436232 -0.642415
rclavicle -1.37068e-014 1.03368e-014
rhumerus -47.126 0.018964 -46.3023
rradius 59.6172
rwrist 20.0977
rhand -19.9765 -44.408
rfingers 7.12502
rthumb 6.36247 -74.2925
lclavicle -1.37068e-014 1.03368e-014
lhumerus -45.5144 -10.1975 84.9564
lradius 89.5271
lwrist -25.0709
lhand -32.8422 -24.0133
lfingers 7.12502
lthumb -6.06189 5.87999
rfemur -1.05487 1.74568 13.9876
rtibia 38.2805
rfoot -4.77256 -27.1267
rtoes 39.3113
lfemur -24.1141 -10.4585 -11.2953
ltibia 28.4513
lfoot -7.75835 15.8611
ltoes -1.47946
323
root 9.98687 16.2408 2.21333 -542.424 -80.1962 552.802
lowerback -5.84574 0.343223 -1.85998
upperback -4.39421 0.410184 1.80182
thorax -1.27909 0.214668 2.91941
lowerneck 4.22699 -0.680265 -0.519465
upperneck 3.40943 -0.959316 -2.43645
head 0.335039 -0.518267 -0.644774
rclavicle -6.28967e-015 5.86415e-015
rhumerus -46.7298 -0.147268 -46.3394
rradius 59.3506
rwrist 20.2267
rhand -19.9707 -44.2764
rfingers 7.12502
rthumb 6.36809 -74.1606
lclavicle -6.28967e-015 5.86415e-015
lhumerus -45.9986 -9.92596 85.2728
lradius 89.8205
lwrist -25.0487
lhand -32.772 -23.869
lfingers 7.12502
lthumb -5.99412 6.02624
rfemur -0.899613 1.79318 13.6586
rtibia 37.7299
rfoot -4.82667 -27.7313
rtoes 39.6459
lfemur -24.562 -10.1314 -11.0501
ltibia 28.5064
lfoot -7.59116 16.1454
ltoes 0.289225
324
root 10.1245 16.2281 2.17541 -541.437 -79.266 551.944
lowerback -5.9632 0.415749 -1.82744
upperback -4.47851 0.500647 1.77722
thorax -1.30637 0.257534 2.88057
lowerneck 3.99219 -0.694428 -0.502027
upperneck 3.74114 -0.969182 -2.63609
head 0.472851 -0.531085 -0.711466
rclavicle -2.02543e-014 1.49089e-015
rhumerus -46.4671 -0.0258543 -46.4685
rradius 59.3606
rwrist 20.0522
rhand -20.0416 -44.6776
rfingers 7.12502
rthumb 6.29967 -74.5639
lclavicle -2.02543e-014 1.49089e-015
lhumerus -46.5303 -9.59929 85.5705
lradius 89.9428
lwrist -24.9469
lhand -32.7428 -23.8614
lfingers 7.12502
lthumb -5.96594 6.03464
rfemur -0.792259 1.88694 13.4286
rtibia 37.0854
rfoot -4.7374 -28.2034
rtoes 40.3585
lfemur -25.0197 -9.7641 -10.6869
ltibia 28.5764
lfoot -7.16705 16.4188
ltoes 1.51505
325
root 10.2574 16.217 2.13586 -540.949 -78.1262 551.347
lowerback -5.87629 0.526719 -1.76184
upperback -4.48984 0.643146 1.7823
thorax -1.37453 0.327778 2.85451
lowerneck 3.95679 -0.663821 -0.463952
upperneck 3.93978 -0.924353 -2.78508
head 0.538979 -0.513574 -0.765221
rclavicle -2.69198e-014 -8.54774e-015
rhumerus -46.2985 0.266993 -46.6791
rradius 59.6349
rwrist 19.6644
rhand -19.9159 -44.7868
rfingers 7.12502
rthumb 6.42104 -74.6694
lclavicle -2.69198e-014 -8.54774e-015
lhumerus -46.9524 -9.25074 85.7897
lradius 89.9822
lwrist -24.8178
lhand -32.651 -24.0252
lfingers 7.12502
lthumb -5.87731 5.87325
rfemur -0.441928 2.21575 13.246
rtibia 36.3289
rfoot -4.72266 -28.4577
rtoes 40.9471
lfemur -25.1357 -9.46175 -10.279
ltibia 28.6803
lfoot -6.99119 16.9544
ltoes 4.02087
326
root 10.3859 16.2048 2.09469 -540.231 -76.9469 550.467
lowerback -5.92911 0.631772 -1.70467
upperback -4.3954 0.782632 1.74539
thorax -1.25457 0.394249 2.79135
lowerneck 4.26161 -0.595346 -0.757461
upperneck 3.70904 -0.858878 -2.48971
head 0.42226 -0.478646 -0.623844
rclavicle -2.02481e-014 -1.88845e-015
rhumerus -46.0412 0.48235 -46.9499
rradius 59.9317
rwrist 19.5215
rhand -19.9203 -44.4293
rfingers 7.12502
rthumb 6.41674 -74.3121
lclavicle -2.02481e-014 -1.88845e-015
lhumerus -47.2903 -8.8552 85.9443
lradius 90.1411
lwrist -24.6216
lhand -32.4544 -24.006
lfingers 7.12502
lthumb -5.68747 5.89772
rfemur -0.038385 2.55158 12.9536
rtibia 35.4467
rfoot -4.6432 -28.6863
rtoes 41.5921
lfemur -25.1587 -9.09007 -9.98132
ltibia 28.8049
lfoot -7.05864 17.5053
ltoes 7.12218
327
root 10.52 16.1905 2.05125 -539.21 -75.8791 549.379
lowerback -5.7528 0.602658 -1.83837
upperback -4.52192 0.742447 1.78227
thorax -1.48401 0.379454 2.90053
lowerneck 4.54896 -0.451894 -1.07292
upperneck 3.54133 -0.694298 -2.32142
head 0.32829 -0.396959 -0.52051
rclavicle -1.41013e-014 -1.5207e-014
rhumerus -45.7184 1.02625 -47.2596
rradius 60.1011
rwrist 19.6808
rhand -20.4146 -43.7919
rfingers 7.12502
rthumb 5.93958 -73.6887
lclavicle -1.41013e-014 -1.5207e-014
lhumerus -48.1047 -8.11932 86.175
lradius 90.4497
lwrist -24.51
lhand -32.6398 -23.3677
lfingers 7.12502
lthumb -5.86642 6.53107
rfemur 0.255377 2.72474 12.5587
rtibia 34.4361
rfoot -4.19488 -28.8413
rtoes 41.5011
lfemur -25.3258 -8.70896 -9.77905
ltibia 28.9356
lfoot -6.86137 18.0141
ltoes 8.84931
